<?xml version="1.0" ?><!DOCTYPE svg  PUBLIC '-//W3C//DTD SVG 1.1//EN'  'http://www.w3.org/Graphics/SVG/1.1/DTD/svg11.dtd'><svg height="6.82666in" style="shape-rendering:geometricPrecision; text-rendering:geometricPrecision; image-rendering:optimizeQuality; fill-rule:evenodd; clip-rule:evenodd" viewBox="0 0 6827 6827" width="6.82666in" xml:space="preserve" xmlns="http://www.w3.org/2000/svg" xmlns:xlink="http://www.w3.org/1999/xlink"><defs><style type="text/css">
   <![CDATA[
    .fil2 {fill:none}
    .fil1 {fill:#FAC23C}
    .fil0 {fill:#013668;fill-rule:nonzero}
   ]]>
  </style></defs><g id="Layer_x0020_1"><g id="_272711680"><path class="fil0" d="M4815 3176c35,27 40,78 13,112 -27,35 -78,40 -112,13l-652 -519c-35,-27 -40,-78 -13,-112 4,-5 9,-10 14,-14l651 -518c35,-27 85,-22 112,13 27,35 22,85 -13,112l-573 456 573 456z"/><path class="fil0" d="M3413 853c707,0 1347,287 1810,750 463,463 750,1103 750,1810 0,707 -287,1347 -750,1810 -463,463 -1103,750 -1810,750 -707,0 -1347,-287 -1810,-750 -463,-463 -750,-1103 -750,-1810 0,-707 287,-1347 750,-1810 463,-463 1103,-750 1810,-750zm1697 863c-434,-434 -1034,-703 -1697,-703 -663,0 -1263,269 -1697,703 -434,434 -703,1034 -703,1697 0,663 269,1263 703,1697 434,434 1034,703 1697,703 663,0 1263,-269 1697,-703 434,-434 703,-1034 703,-1697 0,-663 -269,-1263 -703,-1697z"/><path class="fil0" d="M2093 4294c-21,-39 -7,-87 32,-108 39,-21 87,-7 108,32 102,187 267,345 475,456 203,108 445,171 705,171 261,0 503,-63 705,-171 207,-111 373,-269 475,-456 21,-39 69,-53 108,-32 39,21 53,69 32,108 -116,214 -305,395 -540,520 -225,121 -493,191 -780,191 -287,0 -555,-70 -780,-191 -235,-126 -423,-306 -540,-520z"/><path class="fil0" d="M2248 3301c-35,27 -85,22 -112,-13 -27,-35 -22,-85 13,-112l573 -456 -573 -456c-35,-27 -40,-78 -13,-112 27,-35 78,-40 112,-13l651 518c5,4 10,8 14,14 27,35 22,85 -13,112l-652 519z"/></g><path class="fil1" d="M2248 2139l651 518c5,4 10,8 14,14 27,35 22,85 -13,112l-652 519c-35,27 -85,22 -112,-13 -27,-35 -22,-85 13,-112l573 -456 -573 -456c-35,-27 -40,-78 -13,-112 27,-35 78,-40 112,-13zm2862 -423c-434,-434 -1034,-703 -1697,-703 -663,0 -1263,269 -1697,703 -434,434 -703,1034 -703,1697 0,663 269,1263 703,1697 434,434 1034,703 1697,703 663,0 1263,-269 1697,-703 434,-434 703,-1034 703,-1697 0,-663 -269,-1263 -703,-1697zm-3017 2577c-21,-39 -7,-87 32,-108 39,-21 87,-7 108,32 102,187 267,345 475,456 203,108 445,171 705,171 261,0 503,-63 705,-171 207,-111 373,-269 475,-456 21,-39 69,-53 108,-32 39,21 53,69 32,108 -116,214 -305,395 -540,520 -225,121 -493,191 -780,191 -287,0 -555,-70 -780,-191 -235,-126 -423,-306 -540,-520zm1972 -1637l651 -518c35,-27 85,-22 112,13 27,35 22,85 -13,112l-573 456 573 456c35,27 40,78 13,112 -27,35 -78,40 -112,13l-652 -519c-35,-27 -40,-78 -13,-112 4,-5 9,-10 14,-14z"/></g><rect class="fil2" height="6827" width="6827"/></svg>