<?xml version="1.0" encoding="utf-8"?>
<!-- Generator: Adobe Illustrator 24.0.0, SVG Export Plug-In . SVG Version: 6.00 Build 0)  -->
<svg version="1.1"
	 id="svg8" xmlns:cc="http://creativecommons.org/ns#" xmlns:dc="http://purl.org/dc/elements/1.1/" xmlns:inkscape="http://www.inkscape.org/namespaces/inkscape" xmlns:rdf="http://www.w3.org/1999/02/22-rdf-syntax-ns#" xmlns:sodipodi="http://sodipodi.sourceforge.net/DTD/sodipodi-0.dtd" xmlns:svg="http://www.w3.org/2000/svg"
	 xmlns="http://www.w3.org/2000/svg" xmlns:xlink="http://www.w3.org/1999/xlink" x="0px" y="0px" viewBox="0 0 800 800"
	 style="enable-background:new 0 0 800 800;" xml:space="preserve">
<style type="text/css">
	.st0{fill:none;}
	.st1{fill:#FFA0D4;stroke:#241F1C;stroke-width:41.5175;stroke-linecap:round;stroke-linejoin:round;stroke-miterlimit:163.0965;}
	.st2{fill:#784421;stroke:#241F1C;stroke-width:29.9588;stroke-linecap:round;stroke-linejoin:round;stroke-miterlimit:163.0965;}
	.st3{fill:none;stroke:#241F1C;stroke-width:21.1948;stroke-linecap:round;stroke-linejoin:round;stroke-miterlimit:163.0965;}
	.st4{fill:none;stroke:#241F1C;stroke-width:0.1205;stroke-linecap:round;stroke-linejoin:round;stroke-miterlimit:163.0965;}
</style>
<g id="layer1" transform="translate(20.511006,-382.00133)">
	<path id="rect8011" class="st0" d="M-14425.8-23303.9h6027.7c25.7,0,46.6,20.9,46.6,46.6v2279.2c0,25.7-20.9,46.6-46.6,46.6
		h-6027.7c-25.7,0-46.6-20.9-46.6-46.6v-2279.2C-14472.5-23283.1-14451.6-23303.9-14425.8-23303.9z"/>
</g>
<g id="g8681" transform="translate(20.511006,-382.00133)">
	<path id="rect8677" class="st0" d="M-14425.8-23303.9h6027.7c25.7,0,46.6,20.9,46.6,46.6v2279.2c0,25.7-20.9,46.6-46.6,46.6
		h-6027.7c-25.7,0-46.6-20.9-46.6-46.6v-2279.2C-14472.5-23283.1-14451.6-23303.9-14425.8-23303.9z"/>
</g>
<g id="g9233" transform="translate(20.511006,-382.00133)">
	<path id="rect9229" class="st0" d="M-14425.8-23303.9h6027.7c25.7,0,46.6,20.9,46.6,46.6v2279.2c0,25.7-20.9,46.6-46.6,46.6
		h-6027.7c-25.7,0-46.6-20.9-46.6-46.6v-2279.2C-14472.5-23283.1-14451.6-23303.9-14425.8-23303.9z"/>
	<path id="rect9311" class="st0" d="M-23280.7-21784.3h12678.8c25.7,0,46.6,20.9,46.6,46.6v14945.6c0,25.7-20.9,46.6-46.6,46.6
		h-12678.8c-25.7,0-46.6-20.9-46.6-46.6v-14945.6C-23327.4-21763.4-23306.5-21784.3-23280.7-21784.3z"/>
	<ellipse id="path4729" class="st1" cx="302.2" cy="806.7" rx="123.3" ry="114.4"/>
	<path id="path979-8-6-6-8-5-7" class="st2" d="M366.8,1157.7L365,663.9h57.6l3.4,493.4L366.8,1157.7z"/>
	<ellipse id="path4729-7" class="st1" cx="258.1" cy="636.6" rx="165.3" ry="153.4"/>
	<ellipse id="path4729-7-7" class="st1" cx="448.7" cy="565.1" rx="165.3" ry="153.4"/>
	<path id="path977-8-5-8-2-0" class="st3" d="M299.6,1163.7h191.6"/>
	<path id="path972-85-1-7-4-9_2_" class="st4" d="M551.9,879.1"/>
	<path id="path972-85-1-7-4-9_1_" class="st4" d="M433.9,976.3"/>
	<ellipse id="path4729-7-7-7" class="st1" cx="547.2" cy="773.1" rx="119.2" ry="110.7"/>
	<path id="path8755_2_" class="st4" d="M551.9,879.1"/>
	<path id="path8755_1_" class="st4" d="M433.9,976.3"/>
</g>
</svg>
