<?xml version="1.0" encoding="utf-8"?>
<!-- Generator: Adobe Illustrator 24.0.0, SVG Export Plug-In . SVG Version: 6.00 Build 0)  -->
<svg version="1.1"
	 id="svg8" xmlns:cc="http://creativecommons.org/ns#" xmlns:dc="http://purl.org/dc/elements/1.1/" xmlns:inkscape="http://www.inkscape.org/namespaces/inkscape" xmlns:rdf="http://www.w3.org/1999/02/22-rdf-syntax-ns#" xmlns:sodipodi="http://sodipodi.sourceforge.net/DTD/sodipodi-0.dtd" xmlns:svg="http://www.w3.org/2000/svg"
	 xmlns="http://www.w3.org/2000/svg" xmlns:xlink="http://www.w3.org/1999/xlink" x="0px" y="0px" viewBox="0 0 800 800"
	 style="enable-background:new 0 0 800 800;" xml:space="preserve">
<style type="text/css">
	.st0{fill:none;}
	.st1{fill:none;stroke:#241F1C;stroke-width:20.5583;stroke-linecap:round;stroke-linejoin:round;stroke-miterlimit:158.1985;}
	.st2{fill:#784421;stroke:#241F1C;stroke-width:28.5116;stroke-linecap:round;stroke-linejoin:round;stroke-miterlimit:158.1985;}
	.st3{fill:#F0915F;stroke:#241F1C;stroke-width:30.4238;stroke-linecap:round;stroke-linejoin:round;stroke-miterlimit:41.2468;}
	.st4{fill:#F0915F;stroke:#241F1C;stroke-width:30.4138;stroke-linecap:round;stroke-linejoin:round;stroke-miterlimit:41.2468;}
</style>
<g id="layer1" transform="translate(91.701308,-562.02231)">
	<path id="rect8011" class="st0" d="M-11165-29532.4h5846.7c25,0,45.2,20.2,45.2,45.2v2210.7c0,25-20.2,45.2-45.2,45.2H-11165
		c-25,0-45.2-20.2-45.2-45.2v-2210.7C-11210.2-29512.1-11190-29532.4-11165-29532.4z"/>
</g>
<g id="g8681" transform="translate(91.701308,-562.02231)">
	<path id="rect8677" class="st0" d="M-11165-29532.4h5846.7c25,0,45.2,20.2,45.2,45.2v2210.7c0,25-20.2,45.2-45.2,45.2H-11165
		c-25,0-45.2-20.2-45.2-45.2v-2210.7C-11210.2-29512.1-11190-29532.4-11165-29532.4z"/>
</g>
<g id="g9233" transform="translate(91.701308,-562.02231)">
	<path id="rect9229" class="st0" d="M-11165-29532.4h5846.7c25,0,45.2,20.2,45.2,45.2v2210.7c0,25-20.2,45.2-45.2,45.2H-11165
		c-25,0-45.2-20.2-45.2-45.2v-2210.7C-11210.2-29512.1-11190-29532.4-11165-29532.4z"/>
	<path id="rect9311" class="st0" d="M-19754-28058.3h12298.1c25,0,45.2,20.2,45.2,45.2v14496.7c0,25-20.2,45.2-45.2,45.2H-19754
		c-25,0-45.2-20.2-45.2-45.2v-14496.7C-19799.2-28038.1-19779-28058.3-19754-28058.3z"/>
	<path id="path977-8-5-8-4-7-9-1-2" class="st1" d="M236.7,1342.5h185.9"/>
	<path id="path979-8-6-6-8-0-8-6-3-4" class="st2" d="M313.8,1335.7L312.5,777l43.4,0l2.5,558.3L313.8,1335.7z"/>
	<path id="path7154-0-2-6" class="st3" d="M453.9,754.3c20.7,20.4,18.3,88.6,18.5,117.7c0.2,29.1,3.6,97.3-16.8,118
		c-20.4,20.7-88.6,18.3-117.7,18.5c-29.1,0.2-97.3,3.6-118-16.8c-20.7-20.4-18.3-88.6-18.5-117.7c-0.2-29.1-3.6-97.3,16.8-118
		c20.4-20.7,88.6-18.3,117.7-18.5S433.2,733.9,453.9,754.3z"/>
	<path id="path7154-0-5" class="st3" d="M500.8,601.4c20.7,20.4,18.3,88.6,18.5,117.7c0.2,29.1,3.6,97.3-16.8,118
		c-20.4,20.7-88.6,18.3-117.7,18.5c-29.1,0.2-97.3,3.6-118-16.8c-20.7-20.4-18.3-88.6-18.5-117.7c-0.2-29.1-3.6-97.3,16.8-118
		c20.4-20.7,88.6-18.3,117.7-18.5C412,584.4,480.2,581,500.8,601.4z"/>
	<path id="path7154-0-2-2-0" class="st4" d="M349.9,666.3c20.7,20.4,18.3,88.6,18.5,117.7c0.2,29.1,3.6,97.3-16.8,118
		c-20.4,20.7-88.6,18.3-117.7,18.5c-29.1,0.2-97.3,3.6-118-16.8c-20.7-20.4-18.3-88.6-18.5-117.7c-0.2-29.1-3.6-97.3,16.8-118
		c20.4-20.7,88.6-18.3,117.7-18.5C261,649.2,329.2,645.9,349.9,666.3z"/>
</g>
</svg>
