<?xml version="1.0" encoding="utf-8"?>
<!-- Generator: Adobe Illustrator 24.0.0, SVG Export Plug-In . SVG Version: 6.00 Build 0)  -->
<svg version="1.1"
	 id="svg8" xmlns:cc="http://creativecommons.org/ns#" xmlns:dc="http://purl.org/dc/elements/1.1/" xmlns:inkscape="http://www.inkscape.org/namespaces/inkscape" xmlns:rdf="http://www.w3.org/1999/02/22-rdf-syntax-ns#" xmlns:sodipodi="http://sodipodi.sourceforge.net/DTD/sodipodi-0.dtd" xmlns:svg="http://www.w3.org/2000/svg"
	 xmlns="http://www.w3.org/2000/svg" xmlns:xlink="http://www.w3.org/1999/xlink" x="0px" y="0px" viewBox="0 0 800 800"
	 style="enable-background:new 0 0 800 800;" xml:space="preserve">
<style type="text/css">
	.st0{fill:none;}
	.st1{fill:#784421;stroke:#241F1C;stroke-width:25.7109;stroke-linecap:round;stroke-linejoin:round;stroke-miterlimit:169.2589;}
	.st2{fill:none;stroke:#241F1C;stroke-width:21.9956;stroke-linecap:round;stroke-linejoin:round;stroke-miterlimit:169.2589;}
	.st3{fill:#2CA02C;stroke:#241F1C;stroke-width:34.2285;stroke-linecap:round;stroke-linejoin:round;stroke-miterlimit:169.2589;}
	.st4{fill:#37C837;stroke:#241F1C;stroke-width:43.0862;stroke-linecap:round;stroke-linejoin:round;stroke-miterlimit:169.2589;}
	.st5{fill:#5FD35F;stroke:#241F1C;stroke-width:43.0862;stroke-linecap:round;stroke-linejoin:round;stroke-miterlimit:169.2589;}
	.st6{fill:#5FD3D8;stroke:#241F1C;stroke-width:34.2285;stroke-linecap:round;stroke-linejoin:round;stroke-miterlimit:169.2589;}
	.st7{fill:#5FD3D8;stroke:#241F1C;stroke-width:43.0862;stroke-linecap:round;stroke-linejoin:round;stroke-miterlimit:169.2589;}
</style>
<g id="layer1" transform="translate(91.688812,-527.59759)">
	<path id="rect8011" class="st0" d="M-12023.1-30214.2h6255.4c26.7,0,48.4,21.7,48.4,48.4v2365.3c0,26.7-21.7,48.4-48.4,48.4
		h-6255.4c-26.7,0-48.4-21.7-48.4-48.4v-2365.3C-12071.5-30192.5-12049.8-30214.2-12023.1-30214.2z"/>
</g>
<g id="g8681" transform="translate(91.688812,-527.59759)">
	<path id="rect8677" class="st0" d="M-12023.1-30214.2h6255.4c26.7,0,48.4,21.7,48.4,48.4v2365.3c0,26.7-21.7,48.4-48.4,48.4
		h-6255.4c-26.7,0-48.4-21.7-48.4-48.4v-2365.3C-12071.5-30192.5-12049.8-30214.2-12023.1-30214.2z"/>
</g>
<g id="g9233" transform="translate(91.688812,-527.59759)">
	<path id="rect9229" class="st0" d="M-12023.1-30214.2h6255.4c26.7,0,48.4,21.7,48.4,48.4v2365.3c0,26.7-21.7,48.4-48.4,48.4
		h-6255.4c-26.7,0-48.4-21.7-48.4-48.4v-2365.3C-12071.5-30192.5-12049.8-30214.2-12023.1-30214.2z"/>
	<path id="rect9311" class="st0" d="M-21212.6-28637.1h13157.9c26.7,0,48.4,21.7,48.4,48.4v15510.3c0,26.7-21.7,48.4-48.4,48.4
		h-13157.9c-26.7,0-48.4-21.7-48.4-48.4v-15510.3C-21260.9-28615.4-21239.3-28637.1-21212.6-28637.1z"/>
	<path id="path979-8-6-6-8-0-8-4-4-0-5-6-7-4" class="st1" d="M280.1,1298.8L278.4,701l56.6,0l3.3,597.3L280.1,1298.8z"/>
	<path id="path977-8-5-8-4-7-9-1" class="st2" d="M201.1,1307.3H400"/>
	<ellipse id="path5163-5-0" class="st3" cx="311.6" cy="981.7" rx="94" ry="93.4"/>
	<path id="rect5090-0-5" class="st3" d="M316.4,844.5c-2.7,0-5.3,0.3-8,0.7c-14.7-2-30.1,0.6-44,8.6L62.3,970.5
		c-33.1,19.1-44.3,61.1-25.2,94.2c19.1,33.1,61.1,44.3,94.2,25.2l177.2-102.3l177.2,102.3c33.1,19.1,75.1,7.8,94.2-25.2
		c19.1-33.1,7.8-75.1-25.2-94.2L352.4,853.8C341,847.2,328.5,844.2,316.4,844.5L316.4,844.5z"/>
	<path id="rect5090-3-4-6" class="st4" d="M315.9,701c-2.5,0-5,0.3-7.5,0.7c-13.8-2.1-28.2,0.6-41.2,8.7L77.5,828
		c-31,19.3-41.6,61.6-23.7,95c17.9,33.3,57.3,44.7,88.4,25.4l166.2-103.1l166.2,103.1c31,19.3,70.5,7.9,88.4-25.4
		c17.9-33.3,7.4-75.7-23.7-94.9L349.6,710.3C339,703.7,327.3,700.7,315.9,701L315.9,701z"/>
	<path id="rect5090-3-7-8-7" class="st5" d="M310.5,557.2c-2.2,0-4.3,0.3-6.4,0.7c-11.8-2.1-24.2,0.6-35.3,8.7L106.4,684.8
		c-26.6,19.4-35.6,61.9-20.3,95.4c15.3,33.5,49.1,44.9,75.7,25.6l142.3-103.6l142.3,103.6c26.6,19.4,60.3,7.9,75.7-25.6
		c15.3-33.5,6.3-76.1-20.3-95.4L339.4,566.6C330.3,559.9,320.3,556.9,310.5,557.2L310.5,557.2z"/>
	<path id="path8337" class="st1" d="M280.1,1298.8L278.4,701l56.6,0l3.3,597.3L280.1,1298.8z"/>
	<path id="path8343" class="st2" d="M201.1,1307.3H400"/>
	<ellipse id="ellipse8345" class="st6" cx="311.6" cy="981.7" rx="94" ry="93.4"/>
	<path id="path8347" class="st6" d="M316.4,844.5c-2.7,0-5.3,0.3-8,0.7c-14.7-2-30.1,0.6-44,8.6L62.3,970.5
		c-33.1,19.1-44.3,61.1-25.2,94.2c19.1,33.1,61.1,44.3,94.2,25.2l177.2-102.3l177.2,102.3c33.1,19.1,75.1,7.8,94.2-25.2
		c19.1-33.1,7.8-75.1-25.2-94.2L352.4,853.8C341,847.2,328.5,844.2,316.4,844.5L316.4,844.5z"/>
	<path id="path8349" class="st7" d="M315.9,701c-2.5,0-5,0.3-7.5,0.7c-13.8-2.1-28.2,0.6-41.2,8.7L77.5,828
		c-31,19.3-41.6,61.6-23.7,95c17.9,33.3,57.3,44.7,88.4,25.4l166.2-103.1l166.2,103.1c31,19.3,70.5,7.9,88.4-25.4
		c17.9-33.3,7.4-75.7-23.7-94.9L349.6,710.3C339,703.7,327.3,700.7,315.9,701L315.9,701z"/>
	<path id="path8351" class="st7" d="M310.5,557.2c-2.2,0-4.3,0.3-6.4,0.7c-11.8-2.1-24.2,0.6-35.3,8.7L106.4,684.8
		c-26.6,19.4-35.6,61.9-20.3,95.4c15.3,33.5,49.1,44.9,75.7,25.6l142.3-103.6l142.3,103.6c26.6,19.4,60.3,7.9,75.7-25.6
		c15.3-33.5,6.3-76.1-20.3-95.4L339.4,566.6C330.3,559.9,320.3,556.9,310.5,557.2L310.5,557.2z"/>
</g>
</svg>
