<?xml version="1.0" encoding="utf-8"?>
<!-- Generator: Adobe Illustrator 24.0.0, SVG Export Plug-In . SVG Version: 6.00 Build 0)  -->
<svg version="1.1"
	 id="svg8" xmlns:cc="http://creativecommons.org/ns#" xmlns:dc="http://purl.org/dc/elements/1.1/" xmlns:inkscape="http://www.inkscape.org/namespaces/inkscape" xmlns:rdf="http://www.w3.org/1999/02/22-rdf-syntax-ns#" xmlns:sodipodi="http://sodipodi.sourceforge.net/DTD/sodipodi-0.dtd" xmlns:svg="http://www.w3.org/2000/svg"
	 xmlns="http://www.w3.org/2000/svg" xmlns:xlink="http://www.w3.org/1999/xlink" x="0px" y="0px" viewBox="0 0 800 800"
	 style="enable-background:new 0 0 800 800;" xml:space="preserve">
<style type="text/css">
	.st0{fill:none;}
	.st1{fill:none;stroke:#241F1C;stroke-width:23.3492;stroke-linecap:round;stroke-linejoin:round;stroke-miterlimit:145.3537;}
	.st2{fill:none;stroke:#241F1C;stroke-width:26.9306;stroke-linecap:round;stroke-linejoin:round;stroke-miterlimit:145.3537;}
	.st3{fill:#784421;stroke:#241F1C;stroke-width:29.3942;stroke-linecap:round;stroke-linejoin:round;stroke-miterlimit:145.3537;}
	
		.st4{fill:#2CA02C;stroke:#241F1C;stroke-width:37.001;stroke-linecap:round;stroke-linejoin:round;stroke-miterlimit:145.3537;stroke-opacity:0.9882;}
	
		.st5{fill:#37C837;stroke:#241F1C;stroke-width:37.001;stroke-linecap:round;stroke-linejoin:round;stroke-miterlimit:145.3537;stroke-opacity:0.9843;}
	
		.st6{fill:#5FD35F;stroke:#241F1C;stroke-width:37.001;stroke-linecap:round;stroke-linejoin:round;stroke-miterlimit:145.3537;stroke-opacity:0.9882;}
	.st7{fill:#2CA02C;stroke:#241F1C;stroke-width:37.001;stroke-linecap:round;stroke-linejoin:round;stroke-miterlimit:145.3537;}
</style>
<g id="layer1" transform="translate(93.907898,-380.07327)">
	<path id="rect8011" class="st0" d="M-10301-20659.1h5372c22.9,0,41.5,18.6,41.5,41.5v2031.2c0,22.9-18.6,41.5-41.5,41.5h-5372
		c-22.9,0-41.5-18.6-41.5-41.5v-2031.2C-10342.5-20640.5-10323.9-20659.1-10301-20659.1z"/>
</g>
<g id="g8681" transform="translate(93.907898,-380.07327)">
	<path id="rect8677" class="st0" d="M-10301-20659.1h5372c22.9,0,41.5,18.6,41.5,41.5v2031.2c0,22.9-18.6,41.5-41.5,41.5h-5372
		c-22.9,0-41.5-18.6-41.5-41.5v-2031.2C-10342.5-20640.5-10323.9-20659.1-10301-20659.1z"/>
</g>
<g id="g9233" transform="translate(93.907898,-380.07327)">
	<path id="rect9229" class="st0" d="M-10301-20659.1h5372c22.9,0,41.5,18.6,41.5,41.5v2031.2c0,22.9-18.6,41.5-41.5,41.5h-5372
		c-22.9,0-41.5-18.6-41.5-41.5v-2031.2C-10342.5-20640.5-10323.9-20659.1-10301-20659.1z"/>
	<path id="rect9311" class="st0" d="M-18192.6-19304.7H-6893c22.9,0,41.5,18.6,41.5,41.5v13319.7c0,22.9-18.6,41.5-41.5,41.5
		h-11299.5c-22.9,0-41.5-18.6-41.5-41.5v-13319.7C-18234.1-19286.1-18215.5-19304.7-18192.6-19304.7z"/>
	<path id="path977-8" class="st1" d="M184.7,1161h211.1"/>
	<path id="path972-85" class="st2" d="M156.9,893.8c0,0-9.7,121.6,114,97.6"/>
	<path id="path979-8" class="st3" d="M274.6,1072.9l229.7-297.5l35.7,22.3l-228.5,297.8L274.6,1072.9z"/>
	<circle id="path837-7-1-6" class="st4" cx="323" cy="538.7" r="129.1"/>
	<path id="path979-8-6" class="st3" d="M268,1157.4l-1.4-346h46.9l2.7,345.7L268,1157.4z"/>
	<ellipse id="path837-7-80" class="st5" cx="161" cy="705.1" rx="189.9" ry="178.7"/>
	<circle id="path837-2" class="st6" cx="465.3" cy="741.2" r="175.5"/>
	<ellipse id="ellipse8289" class="st7" cx="129.9" cy="817.1" rx="109.9" ry="102"/>
</g>
</svg>
